# MagicaVoxel @ Ephtracy

# group
g Fuel

# material
mtllib Fuel.mtl
usemtl palette

# normals
vn -1 0 0
vn 1 0 0
vn 0 0 1
vn 0 0 -1
vn 0 -1 0
vn 0 1 0

# texcoords
vt 0.0175781 0.5
vt 0.0917969 0.5
vt 0.849609 0.5
vt 0.880859 0.5
vt 0.994141 0.5

# verts
v -17 16 -19
v -17 16 -20
v -17 24 -19
v -17 24 -20
v 20 16 -19
v 20 16 -20
v 20 24 -19
v 20 24 -20
v -17 16 -19
v -17 24 -19
v -16 17 -19
v -16 23 -19
v -13 17 -19
v -13 23 -19
v -12 17 -19
v -12 23 -19
v -9 17 -19
v -9 23 -19
v -8 17 -19
v -8 23 -19
v -5 17 -19
v -5 23 -19
v -4 17 -19
v -4 23 -19
v -1 17 -19
v -1 23 -19
v 0 17 -19
v 0 23 -19
v 3 17 -19
v 3 23 -19
v 4 17 -19
v 4 23 -19
v 7 17 -19
v 7 23 -19
v 8 17 -19
v 8 23 -19
v 11 17 -19
v 11 23 -19
v 12 17 -19
v 12 23 -19
v 15 17 -19
v 15 23 -19
v 16 17 -19
v 16 23 -19
v 19 17 -19
v 19 23 -19
v 20 16 -19
v 20 24 -19
v -17 16 -20
v -17 24 -20
v -16 17 -20
v -16 23 -20
v -13 17 -20
v -13 23 -20
v -12 17 -20
v -12 23 -20
v -9 17 -20
v -9 23 -20
v -8 17 -20
v -8 23 -20
v -5 17 -20
v -5 23 -20
v -4 17 -20
v -4 23 -20
v -1 17 -20
v -1 23 -20
v 0 17 -20
v 0 23 -20
v 3 17 -20
v 3 23 -20
v 4 17 -20
v 4 23 -20
v 7 17 -20
v 7 23 -20
v 8 17 -20
v 8 23 -20
v 11 17 -20
v 11 23 -20
v 12 17 -20
v 12 23 -20
v 15 17 -20
v 15 23 -20
v 16 17 -20
v 16 23 -20
v 19 17 -20
v 19 23 -20
v 20 16 -20
v 20 24 -20
v -17 16 -19
v 20 16 -19
v -17 16 -20
v 20 16 -20
v -17 24 -19
v 20 24 -19
v -17 24 -20
v 20 24 -20

# faces
f 3/5/1 2/5/1 1/5/1
f 4/5/1 2/5/1 3/5/1
f 5/5/2 6/5/2 7/5/2
f 7/5/2 6/5/2 8/5/2
f 11/5/3 10/5/3 9/5/3
f 12/5/3 10/5/3 11/5/3
f 13/5/3 11/5/3 9/5/3
f 13/3/3 12/3/3 11/3/3
f 14/5/3 10/5/3 12/5/3
f 14/3/3 12/3/3 13/3/3
f 15/5/3 13/5/3 9/5/3
f 15/5/3 14/5/3 13/5/3
f 16/5/3 10/5/3 14/5/3
f 16/5/3 14/5/3 15/5/3
f 17/5/3 15/5/3 9/5/3
f 17/2/3 16/2/3 15/2/3
f 18/5/3 10/5/3 16/5/3
f 18/2/3 16/2/3 17/2/3
f 19/5/3 17/5/3 9/5/3
f 19/5/3 18/5/3 17/5/3
f 20/5/3 10/5/3 18/5/3
f 20/5/3 18/5/3 19/5/3
f 21/5/3 19/5/3 9/5/3
f 21/2/3 20/2/3 19/2/3
f 22/5/3 10/5/3 20/5/3
f 22/2/3 20/2/3 21/2/3
f 23/5/3 21/5/3 9/5/3
f 23/5/3 22/5/3 21/5/3
f 24/5/3 10/5/3 22/5/3
f 24/5/3 22/5/3 23/5/3
f 25/5/3 23/5/3 9/5/3
f 25/1/3 24/1/3 23/1/3
f 26/5/3 10/5/3 24/5/3
f 26/1/3 24/1/3 25/1/3
f 27/5/3 25/5/3 9/5/3
f 27/5/3 26/5/3 25/5/3
f 28/5/3 10/5/3 26/5/3
f 28/5/3 26/5/3 27/5/3
f 29/5/3 27/5/3 9/5/3
f 29/1/3 28/1/3 27/1/3
f 30/5/3 10/5/3 28/5/3
f 30/1/3 28/1/3 29/1/3
f 31/5/3 29/5/3 9/5/3
f 31/5/3 30/5/3 29/5/3
f 32/5/3 10/5/3 30/5/3
f 32/5/3 30/5/3 31/5/3
f 33/5/3 31/5/3 9/5/3
f 33/1/3 32/1/3 31/1/3
f 34/5/3 10/5/3 32/5/3
f 34/1/3 32/1/3 33/1/3
f 35/5/3 33/5/3 9/5/3
f 35/5/3 34/5/3 33/5/3
f 36/5/3 10/5/3 34/5/3
f 36/5/3 34/5/3 35/5/3
f 37/5/3 35/5/3 9/5/3
f 37/4/3 36/4/3 35/4/3
f 38/5/3 10/5/3 36/5/3
f 38/4/3 36/4/3 37/4/3
f 39/5/3 37/5/3 9/5/3
f 39/5/3 38/5/3 37/5/3
f 40/5/3 10/5/3 38/5/3
f 40/5/3 38/5/3 39/5/3
f 41/5/3 39/5/3 9/5/3
f 41/4/3 40/4/3 39/4/3
f 42/5/3 10/5/3 40/5/3
f 42/4/3 40/4/3 41/4/3
f 43/5/3 41/5/3 9/5/3
f 43/5/3 42/5/3 41/5/3
f 44/5/3 10/5/3 42/5/3
f 44/5/3 42/5/3 43/5/3
f 45/5/3 43/5/3 9/5/3
f 45/4/3 44/4/3 43/4/3
f 46/5/3 10/5/3 44/5/3
f 46/4/3 44/4/3 45/4/3
f 47/5/3 45/5/3 9/5/3
f 47/5/3 46/5/3 45/5/3
f 48/5/3 10/5/3 46/5/3
f 48/5/3 46/5/3 47/5/3
f 49/5/4 50/5/4 51/5/4
f 51/5/4 50/5/4 52/5/4
f 49/5/4 51/5/4 53/5/4
f 51/3/4 52/3/4 53/3/4
f 52/5/4 50/5/4 54/5/4
f 53/3/4 52/3/4 54/3/4
f 49/5/4 53/5/4 55/5/4
f 53/5/4 54/5/4 55/5/4
f 54/5/4 50/5/4 56/5/4
f 55/5/4 54/5/4 56/5/4
f 49/5/4 55/5/4 57/5/4
f 55/2/4 56/2/4 57/2/4
f 56/5/4 50/5/4 58/5/4
f 57/2/4 56/2/4 58/2/4
f 49/5/4 57/5/4 59/5/4
f 57/5/4 58/5/4 59/5/4
f 58/5/4 50/5/4 60/5/4
f 59/5/4 58/5/4 60/5/4
f 49/5/4 59/5/4 61/5/4
f 59/2/4 60/2/4 61/2/4
f 60/5/4 50/5/4 62/5/4
f 61/2/4 60/2/4 62/2/4
f 49/5/4 61/5/4 63/5/4
f 61/5/4 62/5/4 63/5/4
f 62/5/4 50/5/4 64/5/4
f 63/5/4 62/5/4 64/5/4
f 49/5/4 63/5/4 65/5/4
f 63/1/4 64/1/4 65/1/4
f 64/5/4 50/5/4 66/5/4
f 65/1/4 64/1/4 66/1/4
f 49/5/4 65/5/4 67/5/4
f 65/5/4 66/5/4 67/5/4
f 66/5/4 50/5/4 68/5/4
f 67/5/4 66/5/4 68/5/4
f 49/5/4 67/5/4 69/5/4
f 67/1/4 68/1/4 69/1/4
f 68/5/4 50/5/4 70/5/4
f 69/1/4 68/1/4 70/1/4
f 49/5/4 69/5/4 71/5/4
f 69/5/4 70/5/4 71/5/4
f 70/5/4 50/5/4 72/5/4
f 71/5/4 70/5/4 72/5/4
f 49/5/4 71/5/4 73/5/4
f 71/1/4 72/1/4 73/1/4
f 72/5/4 50/5/4 74/5/4
f 73/1/4 72/1/4 74/1/4
f 49/5/4 73/5/4 75/5/4
f 73/5/4 74/5/4 75/5/4
f 74/5/4 50/5/4 76/5/4
f 75/5/4 74/5/4 76/5/4
f 49/5/4 75/5/4 77/5/4
f 75/4/4 76/4/4 77/4/4
f 76/5/4 50/5/4 78/5/4
f 77/4/4 76/4/4 78/4/4
f 49/5/4 77/5/4 79/5/4
f 77/5/4 78/5/4 79/5/4
f 78/5/4 50/5/4 80/5/4
f 79/5/4 78/5/4 80/5/4
f 49/5/4 79/5/4 81/5/4
f 79/4/4 80/4/4 81/4/4
f 80/5/4 50/5/4 82/5/4
f 81/4/4 80/4/4 82/4/4
f 49/5/4 81/5/4 83/5/4
f 81/5/4 82/5/4 83/5/4
f 82/5/4 50/5/4 84/5/4
f 83/5/4 82/5/4 84/5/4
f 49/5/4 83/5/4 85/5/4
f 83/4/4 84/4/4 85/4/4
f 84/5/4 50/5/4 86/5/4
f 85/4/4 84/4/4 86/4/4
f 49/5/4 85/5/4 87/5/4
f 85/5/4 86/5/4 87/5/4
f 86/5/4 50/5/4 88/5/4
f 87/5/4 86/5/4 88/5/4
f 91/5/5 90/5/5 89/5/5
f 92/5/5 90/5/5 91/5/5
f 93/5/6 94/5/6 95/5/6
f 95/5/6 94/5/6 96/5/6
